<svg xmlns="http://www.w3.org/2000/svg" xmlns:xlink="http://www.w3.org/1999/xlink" width="224" zoomAndPan="magnify" viewBox="0 0 168 94.499997" height="126" preserveAspectRatio="xMidYMid meet" version="1.0"><defs><g/><clipPath id="fcf3761ecd"><path d="M 17.566406 0 L 150.363281 0 L 150.363281 94 L 17.566406 94 Z M 17.566406 0 " clip-rule="nonzero"/></clipPath></defs><g clip-path="url(#fcf3761ecd)"><path fill="#ffffff" d="M 18.4375 27.679688 C 18.160156 27.949219 17.867188 28.21875 17.679688 28.5625 C 17.625 28.683594 17.554688 28.84375 17.625 28.96875 C 17.875 29.4375 18.257812 29.859375 18.703125 30.15625 C 18.875 30.257812 19.066406 30.144531 19.238281 30.089844 C 19.289062 30.074219 19.226562 29.941406 19.222656 29.933594 C 19.179688 29.839844 19.125 29.75 19.066406 29.667969 C 20.675781 27.714844 22.566406 26.019531 24.375 24.253906 C 27 21.816406 29.71875 19.484375 32.523438 17.261719 C 34.851562 15.304688 37.371094 13.597656 39.816406 11.796875 C 40.71875 11.132812 41.691406 10.574219 42.628906 9.960938 C 46.6875 7.300781 50.914062 4.875 55.410156 3.035156 C 58.109375 2.023438 62.550781 0.0117188 64.710938 2.886719 C 65.855469 5.046875 65.746094 7.644531 65.496094 10.011719 C 65.335938 11.617188 65.117188 13.214844 64.804688 14.796875 C 59.003906 16.019531 53.507812 18.441406 48.261719 21.15625 C 41.214844 24.933594 34.25 29.578125 29.785156 36.367188 C 22.09375 48.089844 22.65625 64.78125 25.378906 78.046875 C 26.453125 82.574219 27.785156 87.261719 30.789062 90.921875 C 31.898438 92.25 33.347656 93.488281 35.109375 93.753906 C 37.425781 93.976562 39.097656 92.0625 40.359375 90.371094 C 42.453125 87.503906 43.988281 84.28125 45.398438 81.039062 C 48.371094 74.117188 50.859375 67.011719 53.121094 59.832031 C 53.121094 59.933594 53.183594 60.070312 53.238281 60.160156 C 53.480469 60.542969 53.800781 60.890625 54.167969 61.152344 C 54.84375 61.699219 56.085938 60.050781 56.464844 59.539062 C 59.109375 55.78125 60.804688 51.464844 62.707031 47.304688 C 64.449219 43.363281 66.21875 39.398438 68.71875 35.871094 C 67.929688 39.726562 66.785156 43.5 65.738281 47.292969 C 64.953125 50.054688 64.226562 52.832031 63.375 55.570312 C 63.320312 55.789062 63.28125 55.996094 63.25 56.21875 C 63.382812 56.664062 63.804688 57.046875 64.164062 57.332031 C 64.671875 57.769531 65.578125 55.679688 65.851562 55.304688 C 68.089844 51.472656 70.144531 47.539062 72.183594 43.597656 C 71.65625 45.585938 71.007812 47.570312 70.730469 49.609375 C 70.695312 49.984375 70.757812 50.363281 71 50.65625 C 71.3125 51.054688 71.96875 51.910156 72.53125 51.777344 C 73.078125 51.578125 73.503906 51.144531 73.890625 50.730469 C 74.421875 50.140625 74.9375 49.539062 75.40625 48.902344 C 76.582031 47.34375 77.675781 45.71875 78.804688 44.125 C 78.699219 44.839844 78.597656 45.546875 78.496094 46.261719 C 78.332031 47.230469 78.347656 47.9375 79.121094 48.640625 C 79.421875 48.90625 79.769531 49.390625 80.21875 49.257812 C 80.882812 48.957031 81.316406 48.328125 81.777344 47.78125 C 82.375 47.015625 82.933594 46.222656 83.503906 45.4375 C 84.605469 43.9375 85.710938 42.433594 86.96875 41.070312 C 86.757812 41.984375 86.503906 42.890625 86.25 43.792969 C 86.09375 44.378906 85.855469 44.992188 85.984375 45.597656 C 86.1875 46.242188 87.089844 47.292969 87.773438 47.414062 C 90.085938 47.519531 93.464844 43.203125 95.433594 41.9375 C 95.53125 42.785156 95.429688 43.675781 95.714844 44.488281 C 96.0625 45.378906 96.726562 46.132812 97.492188 46.6875 C 100.109375 48.441406 104.65625 45.941406 107.289062 44.925781 C 112.234375 42.855469 108.65625 43.988281 113.484375 44.535156 C 115.3125 44.730469 117.152344 44.589844 118.980469 44.472656 C 122.582031 44.207031 126.15625 43.6875 129.753906 43.390625 C 135.914062 42.867188 142.125 42.90625 148.277344 43.496094 C 148.441406 43.636719 148.605469 43.820312 148.816406 43.867188 C 149.046875 43.863281 149.269531 43.855469 149.496094 43.84375 C 149.574219 43.832031 150.40625 43.875 150.269531 43.6875 C 150.066406 43.210938 149.671875 42.820312 149.269531 42.507812 C 149.027344 42.339844 148.714844 42.402344 148.4375 42.378906 C 144.992188 42.28125 141.546875 42.101562 138.097656 42.089844 C 132.203125 41.984375 126.335938 42.535156 120.46875 43.042969 C 117.277344 43.238281 112.164062 43.820312 109.339844 42.320312 C 109.023438 42.117188 108.820312 42.300781 108.53125 42.46875 C 107.757812 42.910156 106.972656 43.328125 106.164062 43.695312 C 103.742188 44.730469 99.46875 46.746094 96.933594 45.640625 C 96.351562 43.5625 97.332031 42.050781 95.039062 40.546875 C 94.351562 40.144531 93.453125 41.425781 92.941406 41.8125 C 91.355469 43.21875 89.21875 45.445312 87.183594 46.023438 C 87.359375 45.015625 87.683594 44.042969 87.933594 43.050781 C 88.117188 42.285156 88.414062 41.480469 88.246094 40.6875 C 88.136719 40.242188 87.230469 39.066406 86.71875 39.226562 C 86.617188 39.261719 86.5 39.289062 86.414062 39.359375 C 85.839844 39.820312 85.410156 40.4375 84.929688 40.992188 C 84.121094 41.953125 83.324219 42.925781 82.558594 43.925781 C 81.628906 45.101562 80.78125 46.351562 79.710938 47.410156 C 79.894531 45.820312 80.265625 44.253906 80.386719 42.65625 C 80.417969 42.300781 80.1875 42.015625 79.972656 41.757812 C 79.710938 41.488281 79.433594 41.09375 79.03125 41.058594 C 78.9375 41.0625 78.867188 41.203125 78.824219 41.261719 C 78.511719 41.742188 78.191406 42.222656 77.867188 42.703125 C 76.730469 44.367188 75.550781 46.007812 74.300781 47.59375 C 73.566406 48.496094 72.839844 49.441406 71.917969 50.164062 C 72.644531 46.21875 74.066406 42.445312 75.214844 38.613281 C 75.269531 38.429688 75.289062 38.230469 75.320312 38.042969 C 75.332031 37.988281 75.285156 37.910156 75.257812 37.867188 C 75.054688 37.53125 74.78125 37.226562 74.460938 36.988281 C 74.4375 36.976562 74.300781 36.871094 74.261719 36.921875 C 74.136719 37.101562 74.015625 37.277344 73.925781 37.472656 C 71.257812 42.65625 68.371094 47.726562 65.445312 52.761719 C 66.609375 48.621094 67.96875 44.53125 69.074219 40.371094 C 69.429688 39.03125 69.8125 37.691406 69.976562 36.3125 C 70.035156 35.941406 70.09375 35.566406 69.96875 35.207031 C 69.722656 34.664062 69.257812 34.234375 68.773438 33.898438 C 68.746094 33.875 68.625 33.785156 68.578125 33.832031 C 68.082031 34.234375 67.796875 34.8125 67.488281 35.355469 C 64.46875 40.292969 62.101562 45.574219 59.636719 50.800781 C 58.484375 53.039062 57.40625 55.335938 56.011719 57.4375 C 55.4375 58.3125 54.84375 59.175781 54.050781 59.871094 C 54.90625 56.527344 56.566406 53.441406 58.152344 50.398438 C 60.800781 45.746094 63.671875 41.234375 66.476562 36.675781 C 69.207031 31.941406 73.53125 25.496094 73.785156 20.011719 C 73.84375 18.964844 73.671875 17.890625 73.105469 16.988281 C 71.566406 14.148438 68.300781 14.144531 65.492188 14.660156 C 66.0625 11.132812 67.1875 5.316406 64.550781 2.460938 C 63.640625 1.464844 62.34375 0.777344 60.96875 0.929688 C 59.046875 1.027344 57.242188 1.730469 55.457031 2.402344 C 52.066406 3.734375 48.792969 5.355469 45.625 7.144531 C 43.757812 8.265625 41.894531 9.386719 40.027344 10.507812 C 37.957031 11.851562 35.941406 13.289062 33.894531 14.667969 C 29.96875 17.597656 26.0625 20.566406 22.433594 23.863281 C 21.0625 25.097656 19.679688 26.328125 18.410156 27.671875 Z M 47.085938 76.535156 C 45.226562 80.976562 40.523438 93.683594 34.761719 93.117188 C 33.417969 92.945312 32.203125 92.171875 31.292969 91.179688 C 28.160156 87.394531 26.808594 81.949219 25.738281 77.214844 C 23.53125 65.804688 22.808594 52.363281 27.453125 41.484375 C 30.171875 35.03125 35.253906 29.898438 41 26.019531 C 48.238281 21.171875 56.214844 17.125 64.742188 15.148438 C 62.183594 27.5 58.605469 39.609375 55.257812 51.757812 C 52.839844 60.113281 50.351562 68.46875 47.082031 76.535156 Z M 71.253906 15.324219 C 73.875 16.527344 73.421875 19.914062 72.828125 22.230469 C 71.246094 27.5 68.230469 32.175781 65.476562 36.894531 C 61.285156 43.84375 56.808594 50.671875 53.628906 58.167969 C 57.578125 44.933594 61.535156 31.691406 64.773438 18.261719 C 65.003906 17.1875 65.238281 16.113281 65.449219 15.03125 C 67.375 14.664062 69.410156 14.558594 71.257812 15.328125 Z M 71.253906 15.324219 " fill-opacity="1" fill-rule="nonzero"/></g><g fill="#ffffff" fill-opacity="1"><g transform="translate(9.886031, 80.759522)"><g><path d="M 6 0.171875 C 5.289062 0.171875 4.628906 0.0390625 4.015625 -0.21875 C 3.410156 -0.488281 2.882812 -0.851562 2.4375 -1.3125 C 2 -1.78125 1.65625 -2.328125 1.40625 -2.953125 C 1.164062 -3.578125 1.046875 -4.25 1.046875 -4.96875 L 1.046875 -5 C 1.046875 -5.695312 1.171875 -6.359375 1.421875 -6.984375 C 1.671875 -7.617188 2.015625 -8.171875 2.453125 -8.640625 C 2.898438 -9.109375 3.425781 -9.476562 4.03125 -9.75 C 4.644531 -10.019531 5.3125 -10.15625 6.03125 -10.15625 C 6.476562 -10.15625 6.878906 -10.113281 7.234375 -10.03125 C 7.597656 -9.957031 7.9375 -9.847656 8.25 -9.703125 C 8.5625 -9.566406 8.851562 -9.398438 9.125 -9.203125 C 9.394531 -9.015625 9.660156 -8.800781 9.921875 -8.5625 L 9.390625 -8.015625 C 9.171875 -8.222656 8.941406 -8.414062 8.703125 -8.59375 C 8.460938 -8.78125 8.207031 -8.9375 7.9375 -9.0625 C 7.664062 -9.195312 7.367188 -9.300781 7.046875 -9.375 C 6.734375 -9.445312 6.390625 -9.484375 6.015625 -9.484375 C 5.421875 -9.484375 4.863281 -9.367188 4.34375 -9.140625 C 3.832031 -8.910156 3.390625 -8.59375 3.015625 -8.1875 C 2.640625 -7.789062 2.34375 -7.320312 2.125 -6.78125 C 1.914062 -6.238281 1.8125 -5.648438 1.8125 -5.015625 L 1.8125 -5 C 1.8125 -4.363281 1.921875 -3.769531 2.140625 -3.21875 C 2.359375 -2.675781 2.65625 -2.203125 3.03125 -1.796875 C 3.40625 -1.398438 3.847656 -1.082031 4.359375 -0.84375 C 4.878906 -0.613281 5.4375 -0.5 6.03125 -0.5 C 6.757812 -0.5 7.390625 -0.628906 7.921875 -0.890625 C 8.453125 -1.160156 8.96875 -1.546875 9.46875 -2.046875 L 9.96875 -1.5625 C 9.707031 -1.3125 9.4375 -1.078125 9.15625 -0.859375 C 8.875 -0.648438 8.570312 -0.46875 8.25 -0.3125 C 7.9375 -0.15625 7.59375 -0.0351562 7.21875 0.046875 C 6.84375 0.128906 6.4375 0.171875 6 0.171875 Z M 6 0.171875 "/></g></g></g><g fill="#ffffff" fill-opacity="1"><g transform="translate(20.485817, 80.759522)"><g><path d="M 5.421875 0.15625 C 4.816406 0.15625 4.265625 0.0625 3.765625 -0.125 C 3.273438 -0.3125 2.84375 -0.585938 2.46875 -0.953125 C 2.101562 -1.316406 1.820312 -1.765625 1.625 -2.296875 C 1.425781 -2.828125 1.328125 -3.445312 1.328125 -4.15625 L 1.328125 -9.984375 L 2.0625 -9.984375 L 2.0625 -4.21875 C 2.0625 -3.03125 2.359375 -2.113281 2.953125 -1.46875 C 3.554688 -0.832031 4.390625 -0.515625 5.453125 -0.515625 C 5.953125 -0.515625 6.40625 -0.585938 6.8125 -0.734375 C 7.226562 -0.890625 7.578125 -1.117188 7.859375 -1.421875 C 8.148438 -1.734375 8.375 -2.113281 8.53125 -2.5625 C 8.6875 -3.019531 8.765625 -3.550781 8.765625 -4.15625 L 8.765625 -9.984375 L 9.515625 -9.984375 L 9.515625 -4.234375 C 9.515625 -3.523438 9.414062 -2.894531 9.21875 -2.34375 C 9.019531 -1.800781 8.738281 -1.34375 8.375 -0.96875 C 8.007812 -0.59375 7.578125 -0.3125 7.078125 -0.125 C 6.578125 0.0625 6.023438 0.15625 5.421875 0.15625 Z M 5.421875 0.15625 "/></g></g></g><g fill="#ffffff" fill-opacity="1"><g transform="translate(31.328125, 80.759522)"><g><path d="M 1.484375 -9.984375 L 5.671875 -9.984375 C 6.296875 -9.984375 6.84375 -9.894531 7.3125 -9.71875 C 7.789062 -9.539062 8.179688 -9.300781 8.484375 -9 C 8.722656 -8.757812 8.910156 -8.476562 9.046875 -8.15625 C 9.179688 -7.84375 9.25 -7.503906 9.25 -7.140625 L 9.25 -7.125 C 9.25 -6.695312 9.171875 -6.316406 9.015625 -5.984375 C 8.867188 -5.660156 8.664062 -5.378906 8.40625 -5.140625 C 8.144531 -4.910156 7.835938 -4.71875 7.484375 -4.5625 C 7.128906 -4.414062 6.738281 -4.316406 6.3125 -4.265625 L 9.609375 0 L 8.671875 0 L 5.5 -4.140625 L 2.21875 -4.140625 L 2.21875 0 L 1.484375 0 Z M 5.59375 -4.8125 C 6.007812 -4.8125 6.394531 -4.863281 6.75 -4.96875 C 7.113281 -5.070312 7.421875 -5.21875 7.671875 -5.40625 C 7.929688 -5.601562 8.132812 -5.84375 8.28125 -6.125 C 8.425781 -6.40625 8.5 -6.726562 8.5 -7.09375 L 8.5 -7.125 C 8.5 -7.789062 8.25 -8.316406 7.75 -8.703125 C 7.25 -9.097656 6.546875 -9.296875 5.640625 -9.296875 L 2.21875 -9.296875 L 2.21875 -4.8125 Z M 5.59375 -4.8125 "/></g></g></g><g fill="#ffffff" fill-opacity="1"><g transform="translate(41.642581, 80.759522)"><g><path d="M 1.484375 -9.984375 L 5.671875 -9.984375 C 6.296875 -9.984375 6.84375 -9.894531 7.3125 -9.71875 C 7.789062 -9.539062 8.179688 -9.300781 8.484375 -9 C 8.722656 -8.757812 8.910156 -8.476562 9.046875 -8.15625 C 9.179688 -7.84375 9.25 -7.503906 9.25 -7.140625 L 9.25 -7.125 C 9.25 -6.695312 9.171875 -6.316406 9.015625 -5.984375 C 8.867188 -5.660156 8.664062 -5.378906 8.40625 -5.140625 C 8.144531 -4.910156 7.835938 -4.71875 7.484375 -4.5625 C 7.128906 -4.414062 6.738281 -4.316406 6.3125 -4.265625 L 9.609375 0 L 8.671875 0 L 5.5 -4.140625 L 2.21875 -4.140625 L 2.21875 0 L 1.484375 0 Z M 5.59375 -4.8125 C 6.007812 -4.8125 6.394531 -4.863281 6.75 -4.96875 C 7.113281 -5.070312 7.421875 -5.21875 7.671875 -5.40625 C 7.929688 -5.601562 8.132812 -5.84375 8.28125 -6.125 C 8.425781 -6.40625 8.5 -6.726562 8.5 -7.09375 L 8.5 -7.125 C 8.5 -7.789062 8.25 -8.316406 7.75 -8.703125 C 7.25 -9.097656 6.546875 -9.296875 5.640625 -9.296875 L 2.21875 -9.296875 L 2.21875 -4.8125 Z M 5.59375 -4.8125 "/></g></g></g><g fill="#ffffff" fill-opacity="1"><g transform="translate(51.957038, 80.759522)"><g><path d="M 1.578125 -9.984375 L 2.328125 -9.984375 L 2.328125 0 L 1.578125 0 Z M 1.578125 -9.984375 "/></g></g></g><g fill="#ffffff" fill-opacity="1"><g transform="translate(55.865978, 80.759522)"><g><path d="M 6 0.171875 C 5.289062 0.171875 4.628906 0.0390625 4.015625 -0.21875 C 3.410156 -0.488281 2.882812 -0.851562 2.4375 -1.3125 C 2 -1.78125 1.65625 -2.328125 1.40625 -2.953125 C 1.164062 -3.578125 1.046875 -4.25 1.046875 -4.96875 L 1.046875 -5 C 1.046875 -5.695312 1.171875 -6.359375 1.421875 -6.984375 C 1.671875 -7.617188 2.015625 -8.171875 2.453125 -8.640625 C 2.898438 -9.109375 3.425781 -9.476562 4.03125 -9.75 C 4.644531 -10.019531 5.3125 -10.15625 6.03125 -10.15625 C 6.476562 -10.15625 6.878906 -10.113281 7.234375 -10.03125 C 7.597656 -9.957031 7.9375 -9.847656 8.25 -9.703125 C 8.5625 -9.566406 8.851562 -9.398438 9.125 -9.203125 C 9.394531 -9.015625 9.660156 -8.800781 9.921875 -8.5625 L 9.390625 -8.015625 C 9.171875 -8.222656 8.941406 -8.414062 8.703125 -8.59375 C 8.460938 -8.78125 8.207031 -8.9375 7.9375 -9.0625 C 7.664062 -9.195312 7.367188 -9.300781 7.046875 -9.375 C 6.734375 -9.445312 6.390625 -9.484375 6.015625 -9.484375 C 5.421875 -9.484375 4.863281 -9.367188 4.34375 -9.140625 C 3.832031 -8.910156 3.390625 -8.59375 3.015625 -8.1875 C 2.640625 -7.789062 2.34375 -7.320312 2.125 -6.78125 C 1.914062 -6.238281 1.8125 -5.648438 1.8125 -5.015625 L 1.8125 -5 C 1.8125 -4.363281 1.921875 -3.769531 2.140625 -3.21875 C 2.359375 -2.675781 2.65625 -2.203125 3.03125 -1.796875 C 3.40625 -1.398438 3.847656 -1.082031 4.359375 -0.84375 C 4.878906 -0.613281 5.4375 -0.5 6.03125 -0.5 C 6.757812 -0.5 7.390625 -0.628906 7.921875 -0.890625 C 8.453125 -1.160156 8.96875 -1.546875 9.46875 -2.046875 L 9.96875 -1.5625 C 9.707031 -1.3125 9.4375 -1.078125 9.15625 -0.859375 C 8.875 -0.648438 8.570312 -0.46875 8.25 -0.3125 C 7.9375 -0.15625 7.59375 -0.0351562 7.21875 0.046875 C 6.84375 0.128906 6.4375 0.171875 6 0.171875 Z M 6 0.171875 "/></g></g></g><g fill="#ffffff" fill-opacity="1"><g transform="translate(66.465764, 80.759522)"><g><path d="M 5.421875 0.15625 C 4.816406 0.15625 4.265625 0.0625 3.765625 -0.125 C 3.273438 -0.3125 2.84375 -0.585938 2.46875 -0.953125 C 2.101562 -1.316406 1.820312 -1.765625 1.625 -2.296875 C 1.425781 -2.828125 1.328125 -3.445312 1.328125 -4.15625 L 1.328125 -9.984375 L 2.0625 -9.984375 L 2.0625 -4.21875 C 2.0625 -3.03125 2.359375 -2.113281 2.953125 -1.46875 C 3.554688 -0.832031 4.390625 -0.515625 5.453125 -0.515625 C 5.953125 -0.515625 6.40625 -0.585938 6.8125 -0.734375 C 7.226562 -0.890625 7.578125 -1.117188 7.859375 -1.421875 C 8.148438 -1.734375 8.375 -2.113281 8.53125 -2.5625 C 8.6875 -3.019531 8.765625 -3.550781 8.765625 -4.15625 L 8.765625 -9.984375 L 9.515625 -9.984375 L 9.515625 -4.234375 C 9.515625 -3.523438 9.414062 -2.894531 9.21875 -2.34375 C 9.019531 -1.800781 8.738281 -1.34375 8.375 -0.96875 C 8.007812 -0.59375 7.578125 -0.3125 7.078125 -0.125 C 6.578125 0.0625 6.023438 0.15625 5.421875 0.15625 Z M 5.421875 0.15625 "/></g></g></g><g fill="#ffffff" fill-opacity="1"><g transform="translate(77.308072, 80.759522)"><g><path d="M 1.484375 -9.984375 L 2.21875 -9.984375 L 2.21875 -0.6875 L 8.09375 -0.6875 L 8.09375 0 L 1.484375 0 Z M 1.484375 -9.984375 "/></g></g></g><g fill="#ffffff" fill-opacity="1"><g transform="translate(86.067512, 80.759522)"><g><path d="M 5.421875 0.15625 C 4.816406 0.15625 4.265625 0.0625 3.765625 -0.125 C 3.273438 -0.3125 2.84375 -0.585938 2.46875 -0.953125 C 2.101562 -1.316406 1.820312 -1.765625 1.625 -2.296875 C 1.425781 -2.828125 1.328125 -3.445312 1.328125 -4.15625 L 1.328125 -9.984375 L 2.0625 -9.984375 L 2.0625 -4.21875 C 2.0625 -3.03125 2.359375 -2.113281 2.953125 -1.46875 C 3.554688 -0.832031 4.390625 -0.515625 5.453125 -0.515625 C 5.953125 -0.515625 6.40625 -0.585938 6.8125 -0.734375 C 7.226562 -0.890625 7.578125 -1.117188 7.859375 -1.421875 C 8.148438 -1.734375 8.375 -2.113281 8.53125 -2.5625 C 8.6875 -3.019531 8.765625 -3.550781 8.765625 -4.15625 L 8.765625 -9.984375 L 9.515625 -9.984375 L 9.515625 -4.234375 C 9.515625 -3.523438 9.414062 -2.894531 9.21875 -2.34375 C 9.019531 -1.800781 8.738281 -1.34375 8.375 -0.96875 C 8.007812 -0.59375 7.578125 -0.3125 7.078125 -0.125 C 6.578125 0.0625 6.023438 0.15625 5.421875 0.15625 Z M 5.421875 0.15625 "/></g></g></g><g fill="#ffffff" fill-opacity="1"><g transform="translate(96.90982, 80.759522)"><g><path d="M 1.484375 -9.984375 L 2.1875 -9.984375 L 6.1875 -4.078125 L 10.203125 -9.984375 L 10.90625 -9.984375 L 10.90625 0 L 10.15625 0 L 10.15625 -8.671875 L 6.203125 -2.921875 L 6.15625 -2.921875 L 2.203125 -8.671875 L 2.203125 0 L 1.484375 0 Z M 1.484375 -9.984375 "/></g></g></g><g fill="#ffffff" fill-opacity="1"><g transform="translate(109.292881, 80.759522)"><g/></g></g><g fill="#ffffff" fill-opacity="1"><g transform="translate(113.572745, 80.759522)"><g><path d="M 0.625 -9.984375 L 1.453125 -9.984375 L 5.359375 -0.796875 L 9.28125 -9.984375 L 10.078125 -9.984375 L 5.671875 0.078125 L 5.015625 0.078125 Z M 0.625 -9.984375 "/></g></g></g><g fill="#ffffff" fill-opacity="1"><g transform="translate(124.272388, 80.759522)"><g><path d="M 1.578125 -9.984375 L 2.328125 -9.984375 L 2.328125 0 L 1.578125 0 Z M 1.578125 -9.984375 "/></g></g></g><g fill="#ffffff" fill-opacity="1"><g transform="translate(128.181327, 80.759522)"><g><path d="M 4.1875 -9.296875 L 0.703125 -9.296875 L 0.703125 -9.984375 L 8.40625 -9.984375 L 8.40625 -9.296875 L 4.921875 -9.296875 L 4.921875 0 L 4.1875 0 Z M 4.1875 -9.296875 "/></g></g></g><g fill="#ffffff" fill-opacity="1"><g transform="translate(137.283157, 80.759522)"><g><path d="M 5.28125 -10.0625 L 5.984375 -10.0625 L 10.640625 0 L 9.828125 0 L 8.5625 -2.796875 L 2.671875 -2.796875 L 1.390625 0 L 0.625 0 Z M 8.25 -3.46875 L 5.625 -9.25 L 2.984375 -3.46875 Z M 8.25 -3.46875 "/></g></g></g><g fill="#ffffff" fill-opacity="1"><g transform="translate(148.553447, 80.759522)"><g><path d="M 1.484375 -9.984375 L 8.59375 -9.984375 L 8.59375 -9.296875 L 2.21875 -9.296875 L 2.21875 -5.375 L 7.953125 -5.375 L 7.953125 -4.6875 L 2.21875 -4.6875 L 2.21875 -0.6875 L 8.65625 -0.6875 L 8.65625 0 L 1.484375 0 Z M 1.484375 -9.984375 "/></g></g></g></svg>