<?xml version="1.0" encoding="UTF-8"?>
<svg width="838px" height="154px" viewBox="0 0 838 154" version="1.1" xmlns="http://www.w3.org/2000/svg" xmlns:xlink="http://www.w3.org/1999/xlink">
    <title>Brand/Logo</title>
    <g id="Brand/Logo" stroke="none" stroke-width="1" fill="none" fill-rule="evenodd">
        <g id="Brand/Logotype" transform="translate(176.686100, 3.954700)" fill="#101820">
            <path d="M582.826,74.773 C582.826,49.594 600.676,32.809 622.043,32.809 C646.307,32.809 660.498,50.054 660.498,73.86 L660.498,78.592 L598.389,78.592 C598.54,94.155 608.005,103.31 622.805,103.31 C632.722,103.31 642.029,97.816 644.777,87.898 L658.972,91.408 C654.09,107.122 640.203,116.435 622.805,116.435 C598.54,116.435 582.826,99.189 582.826,74.773 L582.826,74.773 Z M645.086,67.142 C644.323,53.564 634.097,46.086 622.043,46.086 C609.832,46.086 599.612,54.938 598.54,67.142 L645.086,67.142 Z M534.73,91.105 L534.73,47.919 L520.231,47.919 L520.231,34.794 L535.643,34.794 L535.643,12.053 L549.833,12.053 L549.833,34.794 L573.337,34.794 L573.337,47.919 L549.833,47.919 L549.833,90.948 C549.833,98.125 552.731,101.174 559.758,101.174 L572.423,101.174 L572.423,114.451 L559.599,114.451 C544.647,114.451 534.73,107.583 534.73,91.105 L534.73,91.105 Z M438.309,135.817 L448.529,135.817 C454.944,135.817 458.144,133.07 460.438,127.423 L465.473,114.45 L461.654,114.45 L433.275,34.794 L449.751,34.794 L470.658,99.952 L471.881,99.952 L494.463,34.794 L511.098,34.794 L473.103,134.133 C468.982,144.821 460.589,149.546 448.378,149.546 L438.309,149.546 L438.309,135.817 Z M363.344,103.461 L362.121,103.461 L362.121,114.45 L347.32,114.45 L347.32,1.42108547e-13 L362.43,1.42108547e-13 L362.43,46.235 L363.653,46.235 C366.551,41.964 374.181,32.808 389.594,32.808 C411.414,32.808 426.977,50.667 426.977,74.623 C426.977,98.887 410.501,116.435 388.523,116.435 C372.959,116.435 365.94,106.97 363.344,103.461 L363.344,103.461 Z M411.565,74.773 C411.565,58.447 401.036,46.847 386.847,46.847 C373.261,46.847 362.121,57.073 362.121,74.773 C362.121,89.883 371.586,102.547 386.538,102.547 C400.583,102.547 411.565,91.559 411.565,74.773 L411.565,74.773 Z M242.204,74.622 C242.204,50.666 257.616,32.809 279.588,32.809 C295,32.809 302.328,41.964 305.378,46.236 L306.599,46.236 L306.599,34.794 L321.711,34.794 L321.711,97.053 C321.711,99.498 323.234,100.714 325.673,100.714 L329.341,100.714 L329.341,114.45 L318.503,114.45 C311.943,114.45 306.902,110.33 306.902,103.46 L305.838,103.46 C303.091,107.28 296.374,116.435 280.508,116.435 C258.379,116.435 242.204,98.887 242.204,74.622 L242.204,74.622 Z M307.06,74.773 C307.06,57.074 295.763,46.847 282.183,46.847 C267.994,46.847 257.459,58.447 257.459,74.773 C257.459,91.559 268.447,102.548 282.335,102.548 C297.444,102.548 307.06,89.883 307.06,74.773 L307.06,74.773 Z M165.618,136.421 L200.715,136.421 C207.734,136.421 210.633,133.22 210.633,126.05 L210.633,103.007 L209.416,103.007 C206.518,107.891 199.038,116.435 183.627,116.435 C161.648,116.435 146.237,98.729 146.237,74.47 C146.237,50.357 162.57,32.808 184.54,32.808 C200.103,32.808 207.122,42.274 209.869,45.783 L210.942,45.783 L210.942,34.794 L225.743,34.794 L225.743,126.202 C225.743,142.678 215.825,149.546 200.866,149.546 L165.618,149.546 L165.618,136.421 Z M211.093,74.47 C211.093,59.511 201.477,46.847 186.374,46.847 C172.638,46.847 161.648,57.685 161.648,74.47 C161.648,90.948 172.027,102.396 186.217,102.396 C199.802,102.396 211.093,92.169 211.093,74.47 L211.093,74.47 Z M111.615,47.919 L97.116,47.919 L97.116,34.794 L126.725,34.794 L126.725,114.451 L111.615,114.451 L111.615,47.919 Z M109.17,11.291 C109.17,5.796 113.449,1.374 119.245,1.374 C125.193,1.374 129.472,5.796 129.472,11.291 C129.472,17.087 125.193,21.517 119.245,21.517 C113.449,21.517 109.17,17.087 109.17,11.291 L109.17,11.291 Z M19.379,136.42 L54.48,136.42 C61.5,136.42 64.398,133.22 64.398,126.049 L64.398,103.005 L63.179,103.005 C60.277,107.889 52.801,116.434 37.388,116.434 C15.413,116.434 0,98.727 0,74.467 C0,50.352 16.326,32.803 38.305,32.803 C53.869,32.803 60.889,42.268 63.636,45.778 L64.704,45.778 L64.704,34.788 L79.509,34.788 L79.509,126.2 C79.509,142.678 69.588,149.545 54.631,149.545 L19.379,149.545 L19.379,136.42 Z M64.859,74.467 C64.859,59.508 55.243,46.842 40.135,46.842 C26.399,46.842 15.413,57.681 15.413,74.467 C15.413,90.945 25.791,102.395 39.981,102.395 C53.563,102.395 64.859,92.168 64.859,74.467 L64.859,74.467 Z"></path>
        </g>
        <g id="Group" fill="#2ED9C3" fill-rule="nonzero">
            <g id="Brand/Mark">
                <path d="M25.786,89.338 C25.786,81.406 22.581,78.2 18.157,77.286 L18.157,76.218 C22.581,75.301 25.786,71.943 25.786,64.163 L25.786,23.651 C25.786,17.396 28.075,13.734 35.704,13.734 L43.079,13.734 L43.079,8.52651283e-14 L34.635,8.52651283e-14 C20.293,8.52651283e-14 10.68,7.479 10.68,23.499 L10.68,64.839 C10.68,67.626 8.421,69.886 5.634,69.886 L-5.68434189e-14,69.886 L-5.68434189e-14,83.619 L5.634,83.619 C8.421,83.619 10.68,85.878 10.68,88.665 L10.68,130.001 C10.68,146.024 20.293,153.501 34.635,153.501 L43.079,153.501 L43.079,139.768 L35.704,139.768 C28.075,139.768 25.786,136.107 25.786,129.851 L25.786,89.338 Z M58.389,0.001 L58.389,13.734 L81.886,13.734 L81.886,37.232 L95.62,37.232 L95.62,0.001 L58.389,0.001 Z M58.39,83.619 L58.39,69.885 L95.62,69.885 L95.62,153.501 L58.39,153.501 L58.39,139.767 L80.516,139.767 L80.516,83.619 L58.39,83.619 Z"></path>
            </g>
        </g>
    </g>
</svg>