<svg xmlns="http://www.w3.org/2000/svg" xmlns:xlink="http://www.w3.org/1999/xlink" width="300" zoomAndPan="magnify" viewBox="0 0 224.87999 104.999996" height="140" preserveAspectRatio="xMidYMid meet" version="1.0"><defs><g/></defs><g fill="#ea168e" fill-opacity="1"><g transform="translate(3.908808, 88.105992)"><g><path d="M 3.34375 -75.734375 L 23.359375 -75.734375 C 29.421875 -75.734375 33.742188 -73.78125 36.328125 -69.875 C 38.910156 -65.96875 40.203125 -60.253906 40.203125 -52.734375 C 40.203125 -45.203125 39.054688 -39.523438 36.765625 -35.703125 C 34.472656 -31.890625 30.359375 -29.984375 24.421875 -29.984375 L 18.25 -29.984375 L 18.25 0 L 3.34375 0 Z M 19.140625 -43.640625 C 20.953125 -43.640625 22.285156 -43.976562 23.140625 -44.65625 C 23.992188 -45.332031 24.550781 -46.300781 24.8125 -47.5625 C 25.082031 -48.832031 25.21875 -50.640625 25.21875 -52.984375 C 25.21875 -56.160156 24.863281 -58.453125 24.15625 -59.859375 C 23.445312 -61.273438 22.035156 -61.984375 19.921875 -61.984375 L 18.25 -61.984375 L 18.25 -43.640625 Z M 19.140625 -43.640625 "/></g></g></g><g fill="#ffffff" fill-opacity="1"><g transform="translate(42.267242, 88.105992)"><g><path d="M 20.890625 0.703125 C 14.660156 0.703125 10.03125 -1.054688 7 -4.578125 C 3.976562 -8.109375 2.46875 -13.34375 2.46875 -20.28125 L 2.46875 -75.734375 L 17.1875 -75.734375 L 17.1875 -20.890625 C 17.1875 -18.484375 17.421875 -16.601562 17.890625 -15.25 C 18.367188 -13.894531 19.367188 -13.21875 20.890625 -13.21875 C 22.421875 -13.21875 23.421875 -13.878906 23.890625 -15.203125 C 24.359375 -16.523438 24.59375 -18.421875 24.59375 -20.890625 L 24.59375 -75.734375 L 39.328125 -75.734375 L 39.328125 -20.28125 C 39.328125 -13.34375 37.8125 -8.109375 34.78125 -4.578125 C 31.757812 -1.054688 27.128906 0.703125 20.890625 0.703125 Z M 20.890625 0.703125 "/></g></g></g><g fill="#ffffff" fill-opacity="1"><g transform="translate(80.792628, 88.105992)"><g><path d="M 3.34375 0 L 3.34375 -75.734375 L 26.453125 -75.734375 L 32.796875 -29.53125 L 39.140625 -75.734375 L 62.421875 -75.734375 L 62.421875 0 L 48.578125 0 L 48.578125 -54.578125 L 39.859375 0 L 26.28125 0 L 17.015625 -54.578125 L 17.015625 0 Z M 3.34375 0 "/></g></g></g><g fill="#ffffff" fill-opacity="1"><g transform="translate(143.297511, 88.105992)"><g><path d="M 3.34375 -75.734375 L 23.359375 -75.734375 C 29.421875 -75.734375 33.742188 -73.78125 36.328125 -69.875 C 38.910156 -65.96875 40.203125 -60.253906 40.203125 -52.734375 C 40.203125 -45.203125 39.054688 -39.523438 36.765625 -35.703125 C 34.472656 -31.890625 30.359375 -29.984375 24.421875 -29.984375 L 18.25 -29.984375 L 18.25 0 L 3.34375 0 Z M 19.140625 -43.640625 C 20.953125 -43.640625 22.285156 -43.976562 23.140625 -44.65625 C 23.992188 -45.332031 24.550781 -46.300781 24.8125 -47.5625 C 25.082031 -48.832031 25.21875 -50.640625 25.21875 -52.984375 C 25.21875 -56.160156 24.863281 -58.453125 24.15625 -59.859375 C 23.445312 -61.273438 22.035156 -61.984375 19.921875 -61.984375 L 18.25 -61.984375 L 18.25 -43.640625 Z M 19.140625 -43.640625 "/></g></g></g><g fill="#ffffff" fill-opacity="1"><g transform="translate(181.646566, 88.105992)"><g><path d="M 12.515625 0 L 12.515625 -24.953125 L 0.4375 -75.734375 L 15.4375 -75.734375 L 19.65625 -50.078125 L 23.890625 -75.734375 L 38.890625 -75.734375 L 26.796875 -24.953125 L 26.796875 0 Z M 12.515625 0 "/></g></g></g></svg>