<svg xmlns="http://www.w3.org/2000/svg" xmlns:xlink="http://www.w3.org/1999/xlink" width="224" zoomAndPan="magnify" viewBox="0 0 168 94.499997" height="126" preserveAspectRatio="xMidYMid meet" version="1.0"><defs><g/><clipPath id="5e66758cb7"><path d="M 17.566406 0 L 150.363281 0 L 150.363281 94 L 17.566406 94 Z M 17.566406 0 " clip-rule="nonzero"/></clipPath></defs><g clip-path="url(#5e66758cb7)"><path fill="#000000" d="M 18.4375 27.679688 C 18.15625 27.949219 17.867188 28.21875 17.679688 28.5625 C 17.625 28.683594 17.554688 28.84375 17.625 28.96875 C 17.875 29.4375 18.257812 29.859375 18.699219 30.15625 C 18.875 30.257812 19.0625 30.144531 19.238281 30.089844 C 19.285156 30.074219 19.226562 29.941406 19.222656 29.933594 C 19.179688 29.839844 19.125 29.75 19.0625 29.667969 C 20.671875 27.714844 22.566406 26.019531 24.371094 24.253906 C 26.996094 21.816406 29.710938 19.484375 32.519531 17.261719 C 34.84375 15.304688 37.363281 13.597656 39.808594 11.796875 C 40.707031 11.132812 41.679688 10.574219 42.617188 9.960938 C 46.671875 7.300781 50.898438 4.875 55.394531 3.035156 C 58.089844 2.023438 62.53125 0.0117188 64.6875 2.886719 C 65.835938 5.046875 65.726562 7.644531 65.472656 10.011719 C 65.316406 11.617188 65.097656 13.214844 64.785156 14.796875 C 58.984375 16.019531 53.492188 18.441406 48.246094 21.15625 C 41.203125 24.933594 34.242188 29.578125 29.78125 36.367188 C 22.09375 48.089844 22.65625 64.78125 25.375 78.046875 C 26.449219 82.574219 27.78125 87.261719 30.78125 90.921875 C 31.890625 92.25 33.339844 93.488281 35.101562 93.753906 C 37.417969 93.976562 39.089844 92.0625 40.351562 90.371094 C 42.441406 87.503906 43.976562 84.28125 45.386719 81.039062 C 48.359375 74.117188 50.847656 67.011719 53.105469 59.832031 C 53.105469 59.933594 53.167969 60.070312 53.222656 60.160156 C 53.464844 60.542969 53.785156 60.890625 54.152344 61.152344 C 54.824219 61.699219 56.070312 60.050781 56.449219 59.539062 C 59.09375 55.78125 60.785156 51.464844 62.6875 47.304688 C 64.425781 43.363281 66.199219 39.398438 68.695312 35.871094 C 67.910156 39.726562 66.761719 43.5 65.714844 47.292969 C 64.933594 50.054688 64.207031 52.832031 63.355469 55.570312 C 63.300781 55.789062 63.261719 55.996094 63.230469 56.21875 C 63.363281 56.664062 63.785156 57.046875 64.144531 57.332031 C 64.648438 57.769531 65.558594 55.679688 65.832031 55.304688 C 68.066406 51.472656 70.121094 47.539062 72.160156 43.597656 C 71.632812 45.585938 70.984375 47.570312 70.707031 49.609375 C 70.671875 49.984375 70.734375 50.363281 70.976562 50.65625 C 71.289062 51.054688 71.945312 51.910156 72.507812 51.777344 C 73.050781 51.578125 73.480469 51.144531 73.867188 50.730469 C 74.398438 50.140625 74.914062 49.539062 75.382812 48.902344 C 76.554688 47.34375 77.652344 45.71875 78.78125 44.125 C 78.671875 44.839844 78.570312 45.546875 78.46875 46.261719 C 78.304688 47.230469 78.320312 47.9375 79.09375 48.640625 C 79.394531 48.90625 79.742188 49.390625 80.191406 49.257812 C 80.855469 48.957031 81.289062 48.328125 81.75 47.78125 C 82.34375 47.015625 82.90625 46.222656 83.476562 45.4375 C 84.578125 43.9375 85.683594 42.433594 86.941406 41.070312 C 86.730469 41.984375 86.472656 42.890625 86.21875 43.792969 C 86.066406 44.378906 85.824219 44.992188 85.957031 45.597656 C 86.15625 46.242188 87.0625 47.292969 87.742188 47.414062 C 90.050781 47.519531 93.433594 43.203125 95.398438 41.9375 C 95.496094 42.785156 95.394531 43.675781 95.679688 44.488281 C 96.03125 45.378906 96.691406 46.132812 97.457031 46.6875 C 100.074219 48.441406 104.617188 45.941406 107.25 44.925781 C 112.191406 42.855469 108.617188 43.988281 113.441406 44.535156 C 115.269531 44.730469 117.105469 44.589844 118.9375 44.472656 C 122.535156 44.207031 126.109375 43.6875 129.707031 43.390625 C 135.859375 42.867188 142.070312 42.90625 148.21875 43.496094 C 148.382812 43.636719 148.546875 43.820312 148.761719 43.867188 C 148.988281 43.863281 149.214844 43.855469 149.4375 43.84375 C 149.515625 43.832031 150.347656 43.875 150.210938 43.6875 C 150.007812 43.210938 149.617188 42.820312 149.210938 42.507812 C 148.972656 42.339844 148.65625 42.402344 148.378906 42.378906 C 144.9375 42.28125 141.492188 42.101562 138.042969 42.089844 C 132.15625 41.984375 126.285156 42.535156 120.425781 43.042969 C 117.234375 43.238281 112.125 43.820312 109.296875 42.320312 C 108.984375 42.117188 108.78125 42.300781 108.492188 42.46875 C 107.71875 42.910156 106.929688 43.328125 106.125 43.695312 C 103.703125 44.730469 99.433594 46.746094 96.898438 45.640625 C 96.316406 43.5625 97.300781 42.050781 95.003906 40.546875 C 94.316406 40.144531 93.421875 41.425781 92.910156 41.8125 C 91.320312 43.21875 89.1875 45.445312 87.152344 46.023438 C 87.328125 45.015625 87.652344 44.042969 87.902344 43.050781 C 88.085938 42.285156 88.382812 41.480469 88.214844 40.6875 C 88.105469 40.242188 87.199219 39.066406 86.691406 39.226562 C 86.585938 39.261719 86.46875 39.289062 86.382812 39.359375 C 85.808594 39.820312 85.382812 40.4375 84.898438 40.992188 C 84.09375 41.953125 83.296875 42.925781 82.53125 43.925781 C 81.597656 45.101562 80.753906 46.351562 79.683594 47.410156 C 79.867188 45.820312 80.238281 44.253906 80.359375 42.65625 C 80.390625 42.300781 80.160156 42.015625 79.945312 41.757812 C 79.683594 41.488281 79.40625 41.09375 79.003906 41.058594 C 78.910156 41.0625 78.839844 41.203125 78.800781 41.261719 C 78.484375 41.742188 78.164062 42.222656 77.84375 42.703125 C 76.707031 44.367188 75.523438 46.007812 74.277344 47.59375 C 73.542969 48.496094 72.816406 49.441406 71.894531 50.164062 C 72.621094 46.21875 74.039062 42.445312 75.1875 38.613281 C 75.246094 38.429688 75.265625 38.230469 75.296875 38.042969 C 75.308594 37.988281 75.257812 37.910156 75.234375 37.867188 C 75.027344 37.53125 74.753906 37.226562 74.433594 36.988281 C 74.410156 36.976562 74.273438 36.871094 74.238281 36.921875 C 74.109375 37.101562 73.992188 37.277344 73.898438 37.472656 C 71.234375 42.65625 68.351562 47.726562 65.421875 52.761719 C 66.589844 48.621094 67.949219 44.53125 69.050781 40.371094 C 69.410156 39.03125 69.792969 37.691406 69.953125 36.3125 C 70.011719 35.941406 70.074219 35.566406 69.945312 35.207031 C 69.699219 34.664062 69.238281 34.234375 68.753906 33.898438 C 68.722656 33.875 68.601562 33.785156 68.554688 33.832031 C 68.058594 34.234375 67.777344 34.8125 67.464844 35.355469 C 64.445312 40.292969 62.082031 45.574219 59.617188 50.800781 C 58.46875 53.039062 57.390625 55.335938 55.992188 57.4375 C 55.421875 58.3125 54.828125 59.175781 54.035156 59.871094 C 54.890625 56.527344 56.546875 53.441406 58.136719 50.398438 C 60.78125 45.746094 63.652344 41.234375 66.453125 36.675781 C 69.183594 31.941406 73.503906 25.496094 73.757812 20.011719 C 73.820312 18.964844 73.644531 17.890625 73.082031 16.988281 C 71.542969 14.148438 68.277344 14.144531 65.472656 14.660156 C 66.042969 11.132812 67.164062 5.316406 64.53125 2.460938 C 63.621094 1.464844 62.324219 0.777344 60.949219 0.929688 C 59.027344 1.027344 57.222656 1.730469 55.441406 2.402344 C 52.050781 3.734375 48.78125 5.355469 45.613281 7.144531 C 43.746094 8.265625 41.882812 9.386719 40.019531 10.507812 C 37.945312 11.851562 35.933594 13.289062 33.886719 14.667969 C 29.964844 17.597656 26.058594 20.566406 22.429688 23.863281 C 21.058594 25.097656 19.675781 26.328125 18.410156 27.671875 Z M 47.074219 76.535156 C 45.214844 80.976562 40.511719 93.683594 34.753906 93.117188 C 33.410156 92.945312 32.199219 92.171875 31.289062 91.179688 C 28.15625 87.394531 26.804688 81.949219 25.738281 77.214844 C 23.527344 65.804688 22.808594 52.363281 27.449219 41.484375 C 30.164062 35.03125 35.246094 29.898438 40.988281 26.019531 C 48.222656 21.171875 56.199219 17.125 64.71875 15.148438 C 62.164062 27.5 58.589844 39.609375 55.238281 51.757812 C 52.824219 60.113281 50.335938 68.46875 47.070312 76.535156 Z M 71.230469 15.324219 C 73.851562 16.527344 73.394531 19.914062 72.804688 22.230469 C 71.222656 27.5 68.207031 32.175781 65.457031 36.894531 C 61.265625 43.84375 56.792969 50.671875 53.613281 58.167969 C 57.5625 44.933594 61.519531 31.691406 64.75 18.261719 C 64.980469 17.1875 65.21875 16.113281 65.429688 15.03125 C 67.355469 14.664062 69.390625 14.558594 71.234375 15.328125 Z M 71.230469 15.324219 " fill-opacity="1" fill-rule="nonzero"/></g><g fill="#000000" fill-opacity="1"><g transform="translate(9.886031, 80.759522)"><g><path d="M 6 0.171875 C 5.289062 0.171875 4.628906 0.0390625 4.015625 -0.21875 C 3.410156 -0.488281 2.882812 -0.851562 2.4375 -1.3125 C 2 -1.78125 1.65625 -2.328125 1.40625 -2.953125 C 1.164062 -3.578125 1.046875 -4.25 1.046875 -4.96875 L 1.046875 -5 C 1.046875 -5.695312 1.171875 -6.359375 1.421875 -6.984375 C 1.671875 -7.617188 2.015625 -8.171875 2.453125 -8.640625 C 2.898438 -9.109375 3.425781 -9.476562 4.03125 -9.75 C 4.644531 -10.019531 5.3125 -10.15625 6.03125 -10.15625 C 6.476562 -10.15625 6.878906 -10.113281 7.234375 -10.03125 C 7.597656 -9.957031 7.9375 -9.847656 8.25 -9.703125 C 8.5625 -9.566406 8.851562 -9.398438 9.125 -9.203125 C 9.394531 -9.015625 9.660156 -8.800781 9.921875 -8.5625 L 9.390625 -8.015625 C 9.171875 -8.222656 8.941406 -8.414062 8.703125 -8.59375 C 8.460938 -8.78125 8.207031 -8.9375 7.9375 -9.0625 C 7.664062 -9.195312 7.367188 -9.300781 7.046875 -9.375 C 6.734375 -9.445312 6.390625 -9.484375 6.015625 -9.484375 C 5.421875 -9.484375 4.863281 -9.367188 4.34375 -9.140625 C 3.832031 -8.910156 3.390625 -8.59375 3.015625 -8.1875 C 2.640625 -7.789062 2.34375 -7.320312 2.125 -6.78125 C 1.914062 -6.238281 1.8125 -5.648438 1.8125 -5.015625 L 1.8125 -5 C 1.8125 -4.363281 1.921875 -3.769531 2.140625 -3.21875 C 2.359375 -2.675781 2.65625 -2.203125 3.03125 -1.796875 C 3.40625 -1.398438 3.847656 -1.082031 4.359375 -0.84375 C 4.878906 -0.613281 5.4375 -0.5 6.03125 -0.5 C 6.757812 -0.5 7.390625 -0.628906 7.921875 -0.890625 C 8.453125 -1.160156 8.96875 -1.546875 9.46875 -2.046875 L 9.96875 -1.5625 C 9.707031 -1.3125 9.4375 -1.078125 9.15625 -0.859375 C 8.875 -0.648438 8.570312 -0.46875 8.25 -0.3125 C 7.9375 -0.15625 7.59375 -0.0351562 7.21875 0.046875 C 6.84375 0.128906 6.4375 0.171875 6 0.171875 Z M 6 0.171875 "/></g></g></g><g fill="#000000" fill-opacity="1"><g transform="translate(20.485817, 80.759522)"><g><path d="M 5.421875 0.15625 C 4.816406 0.15625 4.265625 0.0625 3.765625 -0.125 C 3.273438 -0.3125 2.84375 -0.585938 2.46875 -0.953125 C 2.101562 -1.316406 1.820312 -1.765625 1.625 -2.296875 C 1.425781 -2.828125 1.328125 -3.445312 1.328125 -4.15625 L 1.328125 -9.984375 L 2.0625 -9.984375 L 2.0625 -4.21875 C 2.0625 -3.03125 2.359375 -2.113281 2.953125 -1.46875 C 3.554688 -0.832031 4.390625 -0.515625 5.453125 -0.515625 C 5.953125 -0.515625 6.40625 -0.585938 6.8125 -0.734375 C 7.226562 -0.890625 7.578125 -1.117188 7.859375 -1.421875 C 8.148438 -1.734375 8.375 -2.113281 8.53125 -2.5625 C 8.6875 -3.019531 8.765625 -3.550781 8.765625 -4.15625 L 8.765625 -9.984375 L 9.515625 -9.984375 L 9.515625 -4.234375 C 9.515625 -3.523438 9.414062 -2.894531 9.21875 -2.34375 C 9.019531 -1.800781 8.738281 -1.34375 8.375 -0.96875 C 8.007812 -0.59375 7.578125 -0.3125 7.078125 -0.125 C 6.578125 0.0625 6.023438 0.15625 5.421875 0.15625 Z M 5.421875 0.15625 "/></g></g></g><g fill="#000000" fill-opacity="1"><g transform="translate(31.328125, 80.759522)"><g><path d="M 1.484375 -9.984375 L 5.671875 -9.984375 C 6.296875 -9.984375 6.84375 -9.894531 7.3125 -9.71875 C 7.789062 -9.539062 8.179688 -9.300781 8.484375 -9 C 8.722656 -8.757812 8.910156 -8.476562 9.046875 -8.15625 C 9.179688 -7.84375 9.25 -7.503906 9.25 -7.140625 L 9.25 -7.125 C 9.25 -6.695312 9.171875 -6.316406 9.015625 -5.984375 C 8.867188 -5.660156 8.664062 -5.378906 8.40625 -5.140625 C 8.144531 -4.910156 7.835938 -4.71875 7.484375 -4.5625 C 7.128906 -4.414062 6.738281 -4.316406 6.3125 -4.265625 L 9.609375 0 L 8.671875 0 L 5.5 -4.140625 L 2.21875 -4.140625 L 2.21875 0 L 1.484375 0 Z M 5.59375 -4.8125 C 6.007812 -4.8125 6.394531 -4.863281 6.75 -4.96875 C 7.113281 -5.070312 7.421875 -5.21875 7.671875 -5.40625 C 7.929688 -5.601562 8.132812 -5.84375 8.28125 -6.125 C 8.425781 -6.40625 8.5 -6.726562 8.5 -7.09375 L 8.5 -7.125 C 8.5 -7.789062 8.25 -8.316406 7.75 -8.703125 C 7.25 -9.097656 6.546875 -9.296875 5.640625 -9.296875 L 2.21875 -9.296875 L 2.21875 -4.8125 Z M 5.59375 -4.8125 "/></g></g></g><g fill="#000000" fill-opacity="1"><g transform="translate(41.642581, 80.759522)"><g><path d="M 1.484375 -9.984375 L 5.671875 -9.984375 C 6.296875 -9.984375 6.84375 -9.894531 7.3125 -9.71875 C 7.789062 -9.539062 8.179688 -9.300781 8.484375 -9 C 8.722656 -8.757812 8.910156 -8.476562 9.046875 -8.15625 C 9.179688 -7.84375 9.25 -7.503906 9.25 -7.140625 L 9.25 -7.125 C 9.25 -6.695312 9.171875 -6.316406 9.015625 -5.984375 C 8.867188 -5.660156 8.664062 -5.378906 8.40625 -5.140625 C 8.144531 -4.910156 7.835938 -4.71875 7.484375 -4.5625 C 7.128906 -4.414062 6.738281 -4.316406 6.3125 -4.265625 L 9.609375 0 L 8.671875 0 L 5.5 -4.140625 L 2.21875 -4.140625 L 2.21875 0 L 1.484375 0 Z M 5.59375 -4.8125 C 6.007812 -4.8125 6.394531 -4.863281 6.75 -4.96875 C 7.113281 -5.070312 7.421875 -5.21875 7.671875 -5.40625 C 7.929688 -5.601562 8.132812 -5.84375 8.28125 -6.125 C 8.425781 -6.40625 8.5 -6.726562 8.5 -7.09375 L 8.5 -7.125 C 8.5 -7.789062 8.25 -8.316406 7.75 -8.703125 C 7.25 -9.097656 6.546875 -9.296875 5.640625 -9.296875 L 2.21875 -9.296875 L 2.21875 -4.8125 Z M 5.59375 -4.8125 "/></g></g></g><g fill="#000000" fill-opacity="1"><g transform="translate(51.957038, 80.759522)"><g><path d="M 1.578125 -9.984375 L 2.328125 -9.984375 L 2.328125 0 L 1.578125 0 Z M 1.578125 -9.984375 "/></g></g></g><g fill="#000000" fill-opacity="1"><g transform="translate(55.865978, 80.759522)"><g><path d="M 6 0.171875 C 5.289062 0.171875 4.628906 0.0390625 4.015625 -0.21875 C 3.410156 -0.488281 2.882812 -0.851562 2.4375 -1.3125 C 2 -1.78125 1.65625 -2.328125 1.40625 -2.953125 C 1.164062 -3.578125 1.046875 -4.25 1.046875 -4.96875 L 1.046875 -5 C 1.046875 -5.695312 1.171875 -6.359375 1.421875 -6.984375 C 1.671875 -7.617188 2.015625 -8.171875 2.453125 -8.640625 C 2.898438 -9.109375 3.425781 -9.476562 4.03125 -9.75 C 4.644531 -10.019531 5.3125 -10.15625 6.03125 -10.15625 C 6.476562 -10.15625 6.878906 -10.113281 7.234375 -10.03125 C 7.597656 -9.957031 7.9375 -9.847656 8.25 -9.703125 C 8.5625 -9.566406 8.851562 -9.398438 9.125 -9.203125 C 9.394531 -9.015625 9.660156 -8.800781 9.921875 -8.5625 L 9.390625 -8.015625 C 9.171875 -8.222656 8.941406 -8.414062 8.703125 -8.59375 C 8.460938 -8.78125 8.207031 -8.9375 7.9375 -9.0625 C 7.664062 -9.195312 7.367188 -9.300781 7.046875 -9.375 C 6.734375 -9.445312 6.390625 -9.484375 6.015625 -9.484375 C 5.421875 -9.484375 4.863281 -9.367188 4.34375 -9.140625 C 3.832031 -8.910156 3.390625 -8.59375 3.015625 -8.1875 C 2.640625 -7.789062 2.34375 -7.320312 2.125 -6.78125 C 1.914062 -6.238281 1.8125 -5.648438 1.8125 -5.015625 L 1.8125 -5 C 1.8125 -4.363281 1.921875 -3.769531 2.140625 -3.21875 C 2.359375 -2.675781 2.65625 -2.203125 3.03125 -1.796875 C 3.40625 -1.398438 3.847656 -1.082031 4.359375 -0.84375 C 4.878906 -0.613281 5.4375 -0.5 6.03125 -0.5 C 6.757812 -0.5 7.390625 -0.628906 7.921875 -0.890625 C 8.453125 -1.160156 8.96875 -1.546875 9.46875 -2.046875 L 9.96875 -1.5625 C 9.707031 -1.3125 9.4375 -1.078125 9.15625 -0.859375 C 8.875 -0.648438 8.570312 -0.46875 8.25 -0.3125 C 7.9375 -0.15625 7.59375 -0.0351562 7.21875 0.046875 C 6.84375 0.128906 6.4375 0.171875 6 0.171875 Z M 6 0.171875 "/></g></g></g><g fill="#000000" fill-opacity="1"><g transform="translate(66.465764, 80.759522)"><g><path d="M 5.421875 0.15625 C 4.816406 0.15625 4.265625 0.0625 3.765625 -0.125 C 3.273438 -0.3125 2.84375 -0.585938 2.46875 -0.953125 C 2.101562 -1.316406 1.820312 -1.765625 1.625 -2.296875 C 1.425781 -2.828125 1.328125 -3.445312 1.328125 -4.15625 L 1.328125 -9.984375 L 2.0625 -9.984375 L 2.0625 -4.21875 C 2.0625 -3.03125 2.359375 -2.113281 2.953125 -1.46875 C 3.554688 -0.832031 4.390625 -0.515625 5.453125 -0.515625 C 5.953125 -0.515625 6.40625 -0.585938 6.8125 -0.734375 C 7.226562 -0.890625 7.578125 -1.117188 7.859375 -1.421875 C 8.148438 -1.734375 8.375 -2.113281 8.53125 -2.5625 C 8.6875 -3.019531 8.765625 -3.550781 8.765625 -4.15625 L 8.765625 -9.984375 L 9.515625 -9.984375 L 9.515625 -4.234375 C 9.515625 -3.523438 9.414062 -2.894531 9.21875 -2.34375 C 9.019531 -1.800781 8.738281 -1.34375 8.375 -0.96875 C 8.007812 -0.59375 7.578125 -0.3125 7.078125 -0.125 C 6.578125 0.0625 6.023438 0.15625 5.421875 0.15625 Z M 5.421875 0.15625 "/></g></g></g><g fill="#000000" fill-opacity="1"><g transform="translate(77.308072, 80.759522)"><g><path d="M 1.484375 -9.984375 L 2.21875 -9.984375 L 2.21875 -0.6875 L 8.09375 -0.6875 L 8.09375 0 L 1.484375 0 Z M 1.484375 -9.984375 "/></g></g></g><g fill="#000000" fill-opacity="1"><g transform="translate(86.067512, 80.759522)"><g><path d="M 5.421875 0.15625 C 4.816406 0.15625 4.265625 0.0625 3.765625 -0.125 C 3.273438 -0.3125 2.84375 -0.585938 2.46875 -0.953125 C 2.101562 -1.316406 1.820312 -1.765625 1.625 -2.296875 C 1.425781 -2.828125 1.328125 -3.445312 1.328125 -4.15625 L 1.328125 -9.984375 L 2.0625 -9.984375 L 2.0625 -4.21875 C 2.0625 -3.03125 2.359375 -2.113281 2.953125 -1.46875 C 3.554688 -0.832031 4.390625 -0.515625 5.453125 -0.515625 C 5.953125 -0.515625 6.40625 -0.585938 6.8125 -0.734375 C 7.226562 -0.890625 7.578125 -1.117188 7.859375 -1.421875 C 8.148438 -1.734375 8.375 -2.113281 8.53125 -2.5625 C 8.6875 -3.019531 8.765625 -3.550781 8.765625 -4.15625 L 8.765625 -9.984375 L 9.515625 -9.984375 L 9.515625 -4.234375 C 9.515625 -3.523438 9.414062 -2.894531 9.21875 -2.34375 C 9.019531 -1.800781 8.738281 -1.34375 8.375 -0.96875 C 8.007812 -0.59375 7.578125 -0.3125 7.078125 -0.125 C 6.578125 0.0625 6.023438 0.15625 5.421875 0.15625 Z M 5.421875 0.15625 "/></g></g></g><g fill="#000000" fill-opacity="1"><g transform="translate(96.90982, 80.759522)"><g><path d="M 1.484375 -9.984375 L 2.1875 -9.984375 L 6.1875 -4.078125 L 10.203125 -9.984375 L 10.90625 -9.984375 L 10.90625 0 L 10.15625 0 L 10.15625 -8.671875 L 6.203125 -2.921875 L 6.15625 -2.921875 L 2.203125 -8.671875 L 2.203125 0 L 1.484375 0 Z M 1.484375 -9.984375 "/></g></g></g><g fill="#000000" fill-opacity="1"><g transform="translate(109.292881, 80.759522)"><g/></g></g><g fill="#000000" fill-opacity="1"><g transform="translate(113.572745, 80.759522)"><g><path d="M 0.625 -9.984375 L 1.453125 -9.984375 L 5.359375 -0.796875 L 9.28125 -9.984375 L 10.078125 -9.984375 L 5.671875 0.078125 L 5.015625 0.078125 Z M 0.625 -9.984375 "/></g></g></g><g fill="#000000" fill-opacity="1"><g transform="translate(124.272388, 80.759522)"><g><path d="M 1.578125 -9.984375 L 2.328125 -9.984375 L 2.328125 0 L 1.578125 0 Z M 1.578125 -9.984375 "/></g></g></g><g fill="#000000" fill-opacity="1"><g transform="translate(128.181327, 80.759522)"><g><path d="M 4.1875 -9.296875 L 0.703125 -9.296875 L 0.703125 -9.984375 L 8.40625 -9.984375 L 8.40625 -9.296875 L 4.921875 -9.296875 L 4.921875 0 L 4.1875 0 Z M 4.1875 -9.296875 "/></g></g></g><g fill="#000000" fill-opacity="1"><g transform="translate(137.283157, 80.759522)"><g><path d="M 5.28125 -10.0625 L 5.984375 -10.0625 L 10.640625 0 L 9.828125 0 L 8.5625 -2.796875 L 2.671875 -2.796875 L 1.390625 0 L 0.625 0 Z M 8.25 -3.46875 L 5.625 -9.25 L 2.984375 -3.46875 Z M 8.25 -3.46875 "/></g></g></g><g fill="#000000" fill-opacity="1"><g transform="translate(148.553447, 80.759522)"><g><path d="M 1.484375 -9.984375 L 8.59375 -9.984375 L 8.59375 -9.296875 L 2.21875 -9.296875 L 2.21875 -5.375 L 7.953125 -5.375 L 7.953125 -4.6875 L 2.21875 -4.6875 L 2.21875 -0.6875 L 8.65625 -0.6875 L 8.65625 0 L 1.484375 0 Z M 1.484375 -9.984375 "/></g></g></g></svg>